HIERARCHY
ROOT Hips
{
	OFFSET -3.958830 18.904000 13.208200
	CHANNELS 6 Xposition Yposition Zposition Zrotation Yrotation Xrotation 
	JOINT LHipJoint
	{
		OFFSET 0.000000 0.000000 0.000000
		CHANNELS 3 Zrotation Yrotation Xrotation
		JOINT LeftUpLeg
		{
			OFFSET 1.800000 -1.400000 0.085000
			CHANNELS 3 Zrotation Yrotation Xrotation
			JOINT LeftLeg
			{
				OFFSET 2.215000 -6.000000 0.000000
				CHANNELS 3 Zrotation Yrotation Xrotation
				JOINT LeftFoot
				{
					OFFSET 2.500000 -6.900000 0.000000
					CHANNELS 3 Zrotation Yrotation Xrotation
					JOINT LeftToeBase
					{
						OFFSET 0.200000 -0.500000 1.950000
						CHANNELS 3 Zrotation Yrotation Xrotation
						End Site
						{
							OFFSET 0.000000 0.000000 0.000000
						}
					}
				}
			}
		}
	}
	JOINT RHipJoint
	{
		OFFSET 0.000000 0.000000 0.000000
		CHANNELS 3 Zrotation Yrotation Xrotation
		JOINT RightUpLeg
		{
			OFFSET -1.800000 -1.400000 0.085000
			CHANNELS 3 Zrotation Yrotation Xrotation
			JOINT RightLeg
			{
				OFFSET -2.215000 -6.000000 0.000000
				CHANNELS 3 Zrotation Yrotation Xrotation
				JOINT RightFoot
				{
					OFFSET -2.500000 -6.900000 0.000000
					CHANNELS 3 Zrotation Yrotation Xrotation
					JOINT RightToeBase
					{
						OFFSET -0.200000 -0.500000 1.950000
						CHANNELS 3 Zrotation Yrotation Xrotation
						End Site
						{
							OFFSET 0.000000 0.000000 0.000000
						}
					}
				}
			}
		}
	}
	JOINT LowerBack
	{
		OFFSET 0.000000 0.000000 0.000000
		CHANNELS 3 Zrotation Yrotation Xrotation
		JOINT Spine
		{
			OFFSET -0.087000 1.940000 -0.288900
			CHANNELS 3 Zrotation Yrotation Xrotation
			JOINT Spine1
			{
				OFFSET 0.000000 1.950000 0.060000
				CHANNELS 3 Zrotation Yrotation Xrotation
				JOINT Neck
				{
					OFFSET 0.000000 0.000000 0.000000
					CHANNELS 3 Zrotation Yrotation Xrotation
					JOINT Neck1
					{
						OFFSET 0.000000 1.600000 0.340000
						CHANNELS 3 Zrotation Yrotation Xrotation
						JOINT Head
						{
							OFFSET 0.000000 1.667000 -0.240000
							CHANNELS 3 Zrotation Yrotation Xrotation
							End Site
							{
								OFFSET 0.000000 0.000000 0.000000
							}
						}
					}
				}
				JOINT LeftShoulder
				{
					OFFSET 0.000000 0.000000 0.000000
					CHANNELS 3 Zrotation Yrotation Xrotation
					JOINT LeftArm
					{
						OFFSET 2.700000 1.550000 -0.730000
						CHANNELS 3 Zrotation Yrotation Xrotation
						JOINT LeftForeArm
						{
							OFFSET 5.450000 0.000000 0.000000
							CHANNELS 3 Zrotation Yrotation Xrotation
							JOINT LeftHand
							{
								OFFSET 3.450000 0.000000 0.000000
								CHANNELS 3 Zrotation Yrotation Xrotation
								JOINT LeftHandIndex1
								{
									OFFSET 0.750000 0.000000 0.000000
									CHANNELS 3 Zrotation Yrotation Xrotation
									End Site
									{
										OFFSET 0.000000 0.000000 0.000000
									}
								}
							}
						}
					}
				}
				JOINT RightShoulder
				{
					OFFSET 0.000000 0.000000 0.000000
					CHANNELS 3 Zrotation Yrotation Xrotation
					JOINT RightArm
					{
						OFFSET -2.700000 1.550000 -0.730000
						CHANNELS 3 Zrotation Yrotation Xrotation
						JOINT RightForeArm
						{
							OFFSET -5.450000 0.000000 0.000000
							CHANNELS 3 Zrotation Yrotation Xrotation
							JOINT RightHand
							{
								OFFSET -3.450000 0.000000 0.000000
								CHANNELS 3 Zrotation Yrotation Xrotation
								JOINT RightHandIndex1
								{
									OFFSET -0.750000 0.000000 0.000000
									CHANNELS 3 Zrotation Yrotation Xrotation
									End Site
									{
										OFFSET 0.000000 0.000000 0.000000
									}
								}
							}
						}
					}
				}
			}
		}
	}
}
MOTION
Frames: 8
Frame Time: 0.016667
-1.384410 17.499090 -1.031740 12.256489 -19.789628 -23.252707 -15.920420 12.077892 6.311418 -11.888267 -11.034836 -63.508906 20.073877 2.025461 13.981695 -0.567108 2.195559 3.564827 0.795800 0.623190 0.731750 17.801187 -9.441392 1.666879 -13.298033 1.006447 3.481886 8.120779 -6.727646 15.745625 -0.827575 -4.500486 2.738477 0.243190 -0.403230 0.220640 -1.755237 -4.451310 -8.887607 -8.513231 6.751556 44.137555 4.859242 5.258350 9.719112 2.861295 -7.568058 -13.978879 -16.835093 13.901082 51.659206 -9.518370 6.268180 -27.103390 -26.893972 -19.489863 6.455976 -44.052720 3.100220 -11.450336 -42.364315 -6.942873 -4.196159 -3.210447 3.009007 0.768630 -0.346150 0.498680 0.065330 21.953026 33.702520 10.074219 33.573942 30.738643 -8.898073 -122.123663 57.637892 -109.244755 2.360601 -0.772722 0.103820 0.130300 -0.255000 -0.253430 
-1.370520 17.445760 -0.965590 11.762831 -22.517005 -23.845953 -15.814451 12.115296 6.105724 -8.751081 -8.606496 -64.785808 18.420985 2.545127 14.442405 -0.503383 2.354214 3.536766 0.765860 0.600840 0.692410 17.865942 -9.638142 1.763048 -12.743843 1.075963 3.950770 7.834044 -6.692063 16.009567 -0.822768 -4.594493 2.740649 0.230920 -0.347800 0.212900 -1.947780 -4.034176 -8.842137 -5.563035 6.237932 44.230402 3.913604 6.286055 10.402152 3.113207 -8.193720 -14.343609 -17.455177 13.678375 49.717357 -10.310430 6.170380 -24.879230 -25.965366 -19.268536 6.591346 -42.802400 3.991112 -12.410413 -48.706609 -8.638107 -4.045966 -3.226258 3.059236 0.711270 -0.304840 0.463830 0.103720 20.527286 34.563961 10.578558 32.916894 31.398448 -9.431400 -123.582335 54.796564 -108.813950 2.352292 -0.872438 0.097600 0.141500 -0.270080 -0.220770 
-1.359770 17.401510 -0.920880 12.654081 -24.219644 -24.788157 -15.757206 12.050054 6.058701 -3.910858 -6.216473 -66.069185 12.778404 3.644943 18.307994 -0.460427 2.781750 3.377477 0.743460 0.579010 0.667280 17.903742 -9.756390 1.757241 -13.869102 1.549102 3.961247 8.137281 -6.864233 16.748420 -0.796581 -4.761799 2.693302 0.227270 -0.304680 0.210670 -2.068713 -3.721381 -8.791136 -5.101055 6.520395 44.145771 3.819317 6.932094 11.435375 2.676685 -8.578157 -14.396244 -17.315535 13.771181 47.213989 -10.046460 6.545600 -23.190230 -24.188985 -19.082315 7.095074 -40.763263 5.232833 -13.440380 -57.842235 -12.416888 -2.745104 -3.260422 3.154091 0.657250 -0.262150 0.415890 0.110830 19.607650 35.159470 10.550466 32.019827 32.834868 -9.473812 -124.049528 52.415866 -106.853669 2.329807 -0.933320 0.092100 0.129850 -0.267980 -0.209650 
-1.348300 17.371020 -0.877160 13.277810 -25.703566 -25.597534 -15.763476 11.987300 6.095230 0.562357 -3.924084 -66.906372 7.483146 5.134882 21.464689 -0.374926 3.509214 3.104174 0.725790 0.580490 0.638270 17.910945 -9.750931 1.700111 -14.580193 1.907150 4.139390 8.099372 -6.943690 17.371303 -0.787205 -4.874954 2.668323 0.223000 -0.281230 0.216320 -2.054626 -3.661856 -8.809121 -5.052147 6.865232 44.210485 3.975472 7.409942 12.079634 2.709047 -8.556182 -14.463660 -16.675085 13.635130 45.830228 -10.855380 7.147640 -22.044830 -23.737490 -19.170121 7.665991 -39.243192 6.884408 -14.091530 -62.998224 -14.229964 -1.992385 -3.272335 3.210297 0.609720 -0.228300 0.398750 0.129100 19.084110 35.776569 10.387382 30.678214 33.733230 -9.429487 -124.321059 50.775450 -105.214202 2.314420 -0.986243 0.102370 0.113630 -0.278470 -0.189320 
-1.349540 17.355240 -0.847130 14.335737 -25.624458 -25.792799 -15.832401 11.989155 6.145325 2.953713 -3.023810 -66.558933 3.321924 6.167028 21.785038 -0.354413 3.887425 2.975592 0.693310 0.538360 0.622470 17.861297 -9.640190 1.606520 -15.793674 2.267402 3.757259 8.452371 -7.070820 17.728813 -0.754574 -4.935390 2.652035 0.205040 -0.248390 0.219160 -1.876525 -3.933207 -8.821729 -7.130030 7.690728 43.450305 5.285273 7.333837 12.407511 2.498104 -8.224118 -14.405995 -15.475796 13.609088 45.053109 -11.296440 8.035590 -20.967470 -23.465842 -19.169429 8.273329 -38.919092 8.859025 -14.779114 -65.280923 -14.725803 -2.039547 -3.305513 3.218184 0.592450 -0.195030 0.371330 0.128870 19.291057 35.978203 10.069898 29.874209 34.485792 -8.665159 -124.690790 49.891282 -104.241015 2.286832 -1.031149 0.084450 0.110890 -0.266990 -0.193490 
-1.339410 17.365540 -0.824190 16.260831 -26.855078 -26.926487 -15.918573 11.837508 6.363310 6.805583 -1.046690 -68.051312 0.577471 7.827382 25.016833 -0.239978 4.984170 2.575884 0.688180 0.542540 0.617700 17.851290 -9.473755 1.388660 -17.316589 2.758134 3.328808 8.131667 -7.116697 18.775053 -0.742096 -4.973149 2.638393 0.198730 -0.234090 0.220320 -1.723967 -4.109967 -8.902699 -9.489238 8.988210 43.538521 6.144555 7.719740 12.843702 2.251154 -8.284172 -14.529511 -15.401010 13.963958 44.140744 -11.409410 8.479250 -21.447180 -22.449313 -19.254661 8.879273 -39.220666 10.264971 -15.578389 -67.592693 -16.599098 -1.166005 -3.307676 3.219417 0.585160 -0.189100 0.376690 0.140690 18.746957 36.579285 9.839372 29.096655 35.172189 -8.378795 -125.376197 49.334433 -104.691845 2.282716 -1.052167 0.087430 0.123040 -0.274520 -0.181560 
-1.325270 17.385010 -0.784870 18.903856 -28.959081 -28.255204 -16.045996 11.492385 6.784344 11.475147 1.447885 -70.527252 -1.994987 10.791111 32.448791 -0.068856 7.039145 1.837070 0.650450 0.481200 0.640200 17.866824 -9.248019 1.041979 -18.811969 3.074773 2.673918 6.529277 -6.805429 19.457823 -0.685063 -4.871490 2.657467 0.174190 -0.228870 0.219410 -1.535226 -4.126412 -9.054320 -12.082377 10.795000 42.853970 6.857763 8.568746 13.501045 2.163583 -7.943426 -14.389283 -14.487832 13.928792 43.822876 -13.386460 9.222980 -21.702490 -21.267439 -18.711957 9.022648 -39.368141 10.936933 -15.779909 -69.689723 -18.462307 0.120542 -3.347558 3.190934 0.594600 -0.170750 0.362570 0.105970 17.602124 36.343032 9.598069 29.725134 35.944490 -7.713731 -126.866435 48.948438 -107.104627 2.268889 -1.080254 0.057950 0.132320 -0.246740 -0.212790 
-1.299230 17.416170 -0.745710 20.013589 -29.806328 -28.687412 -16.098263 11.230348 7.108754 14.615052 2.526018 -71.172864 -4.573474 13.006559 36.934888 0.074657 8.338508 1.396214 0.633820 0.460200 0.625810 17.901780 -9.140940 0.832595 -19.309560 3.014426 2.268060 5.137723 -6.502172 19.771954 -0.648080 -4.788225 2.686841 0.174700 -0.198380 0.224850 -1.508841 -4.053623 -9.151822 -12.882139 10.948851 42.681326 6.856256 8.431477 13.694618 1.786097 -8.107500 -13.986791 -14.857015 14.643936 43.177598 -13.584210 9.620100 -21.239340 -20.716623 -17.989927 8.988183 -38.277842 11.295217 -15.279235 -71.034612 -19.226123 0.942960 -3.383338 3.198074 0.586170 -0.142290 0.339230 0.101960 17.648178 35.620358 9.070163 30.169018 36.518059 -6.118453 -128.734627 49.197902 -109.997145 2.230806 -1.168999 0.041650 0.141190 -0.226400 -0.216520 
